<?xml version="1.0" encoding="UTF-8" standalone="no"?>
<!DOCTYPE svg PUBLIC "-//W3C//DTD SVG 1.1//EN"
 "http://www.w3.org/Graphics/SVG/1.1/DTD/svg11.dtd">
<!-- Generated by graphviz version 2.38.0 (20140413.2041)
 -->
<!-- Title: snakemake_dag Pages: 1 -->
<svg width="214pt" height="476pt"
 viewBox="0.00 0.00 214.00 476.00" xmlns="http://www.w3.org/2000/svg" xmlns:xlink="http://www.w3.org/1999/xlink">
<g id="graph0" class="graph" transform="scale(1 1) rotate(0) translate(4 472)">
<title>snakemake_dag</title>
<polygon fill="white" stroke="none" points="-4,4 -4,-472 210,-472 210,4 -4,4"/>
<!-- 0 -->
<g id="node1" class="node"><title>0</title>
<path fill="none" stroke="#d6d856" stroke-width="2" d="M121,-36C121,-36 91,-36 91,-36 85,-36 79,-30 79,-24 79,-24 79,-12 79,-12 79,-6 85,-0 91,-0 91,-0 121,-0 121,-0 127,-0 133,-6 133,-12 133,-12 133,-24 133,-24 133,-30 127,-36 121,-36"/>
<text text-anchor="middle" x="106" y="-15.5" font-family="sans" font-size="10.00">all</text>
</g>
<!-- 1 -->
<g id="node2" class="node"><title>1</title>
<path fill="none" stroke="#d85656" stroke-width="2" d="M86,-108C86,-108 38,-108 38,-108 32,-108 26,-102 26,-96 26,-96 26,-84 26,-84 26,-78 32,-72 38,-72 38,-72 86,-72 86,-72 92,-72 98,-78 98,-84 98,-84 98,-96 98,-96 98,-102 92,-108 86,-108"/>
<text text-anchor="middle" x="62" y="-93" font-family="sans" font-size="10.00">fastqc</text>
<text text-anchor="middle" x="62" y="-82" font-family="sans" font-size="10.00">sample: M1</text>
</g>
<!-- 1&#45;&gt;0 -->
<g id="edge1" class="edge"><title>1&#45;&gt;0</title>
<path fill="none" stroke="grey" stroke-width="2" d="M72.8764,-71.6966C77.9916,-63.5589 84.1955,-53.689 89.8449,-44.7013"/>
<polygon fill="grey" stroke="grey" stroke-width="2" points="92.8902,-46.4333 95.2487,-36.1043 86.9637,-42.7081 92.8902,-46.4333"/>
</g>
<!-- 2 -->
<g id="node3" class="node"><title>2</title>
<path fill="none" stroke="#56d882" stroke-width="2" d="M172,-108C172,-108 128,-108 128,-108 122,-108 116,-102 116,-96 116,-96 116,-84 116,-84 116,-78 122,-72 128,-72 128,-72 172,-72 172,-72 178,-72 184,-78 184,-84 184,-84 184,-96 184,-96 184,-102 178,-108 172,-108"/>
<text text-anchor="middle" x="150" y="-87.5" font-family="sans" font-size="10.00">prokka_bin</text>
</g>
<!-- 2&#45;&gt;0 -->
<g id="edge2" class="edge"><title>2&#45;&gt;0</title>
<path fill="none" stroke="grey" stroke-width="2" d="M139.124,-71.6966C134.008,-63.5589 127.805,-53.689 122.155,-44.7013"/>
<polygon fill="grey" stroke="grey" stroke-width="2" points="125.036,-42.7081 116.751,-36.1043 119.11,-46.4333 125.036,-42.7081"/>
</g>
<!-- 3 -->
<g id="node4" class="node"><title>3</title>
<path fill="none" stroke="#d88556" stroke-width="2" d="M167,-180C167,-180 133,-180 133,-180 127,-180 121,-174 121,-168 121,-168 121,-156 121,-156 121,-150 127,-144 133,-144 133,-144 167,-144 167,-144 173,-144 179,-150 179,-156 179,-156 179,-168 179,-168 179,-174 173,-180 167,-180"/>
<text text-anchor="middle" x="150" y="-159.5" font-family="sans" font-size="10.00">maxbin2</text>
</g>
<!-- 3&#45;&gt;2 -->
<g id="edge3" class="edge"><title>3&#45;&gt;2</title>
<path fill="none" stroke="grey" stroke-width="2" d="M150,-143.697C150,-135.983 150,-126.712 150,-118.112"/>
<polygon fill="grey" stroke="grey" stroke-width="2" points="153.5,-118.104 150,-108.104 146.5,-118.104 153.5,-118.104"/>
</g>
<!-- 4 -->
<g id="node5" class="node"><title>4</title>
<path fill="none" stroke="#d8ac56" stroke-width="2" d="M194,-396C194,-396 162,-396 162,-396 156,-396 150,-390 150,-384 150,-384 150,-372 150,-372 150,-366 156,-360 162,-360 162,-360 194,-360 194,-360 200,-360 206,-366 206,-372 206,-372 206,-384 206,-384 206,-390 200,-396 194,-396"/>
<text text-anchor="middle" x="178" y="-375.5" font-family="sans" font-size="10.00">megahit</text>
</g>
<!-- 4&#45;&gt;3 -->
<g id="edge4" class="edge"><title>4&#45;&gt;3</title>
<path fill="none" stroke="grey" stroke-width="2" d="M176.236,-359.57C173.177,-329.99 166.492,-268.096 159,-216 157.786,-207.556 156.291,-198.385 154.871,-190.083"/>
<polygon fill="grey" stroke="grey" stroke-width="2" points="158.305,-189.401 153.139,-180.151 151.409,-190.604 158.305,-189.401"/>
</g>
<!-- 8 -->
<g id="node9" class="node"><title>8</title>
<path fill="none" stroke="#afd856" stroke-width="2" d="M138,-324C138,-324 108,-324 108,-324 102,-324 96,-318 96,-312 96,-312 96,-300 96,-300 96,-294 102,-288 108,-288 108,-288 138,-288 138,-288 144,-288 150,-294 150,-300 150,-300 150,-312 150,-312 150,-318 144,-324 138,-324"/>
<text text-anchor="middle" x="123" y="-303.5" font-family="sans" font-size="10.00">bowtie2</text>
</g>
<!-- 4&#45;&gt;8 -->
<g id="edge9" class="edge"><title>4&#45;&gt;8</title>
<path fill="none" stroke="grey" stroke-width="2" d="M164.404,-359.697C157.877,-351.389 149.932,-341.277 142.753,-332.141"/>
<polygon fill="grey" stroke="grey" stroke-width="2" points="145.369,-329.805 136.439,-324.104 139.865,-334.13 145.369,-329.805"/>
</g>
<!-- 5 -->
<g id="node6" class="node"><title>5</title>
<path fill="none" stroke="#56d8d8" stroke-width="2" d="M177.5,-468C177.5,-468 122.5,-468 122.5,-468 116.5,-468 110.5,-462 110.5,-456 110.5,-456 110.5,-444 110.5,-444 110.5,-438 116.5,-432 122.5,-432 122.5,-432 177.5,-432 177.5,-432 183.5,-432 189.5,-438 189.5,-444 189.5,-444 189.5,-456 189.5,-456 189.5,-462 183.5,-468 177.5,-468"/>
<text text-anchor="middle" x="150" y="-453" font-family="sans" font-size="10.00">trimmomatic</text>
<text text-anchor="middle" x="150" y="-442" font-family="sans" font-size="10.00">sample: M1</text>
</g>
<!-- 5&#45;&gt;4 -->
<g id="edge6" class="edge"><title>5&#45;&gt;4</title>
<path fill="none" stroke="grey" stroke-width="2" d="M156.921,-431.697C160.075,-423.813 163.878,-414.304 167.381,-405.546"/>
<polygon fill="grey" stroke="grey" stroke-width="2" points="170.694,-406.689 171.158,-396.104 164.195,-404.089 170.694,-406.689"/>
</g>
<!-- 5&#45;&gt;8 -->
<g id="edge10" class="edge"><title>5&#45;&gt;8</title>
<path fill="none" stroke="grey" stroke-width="2" d="M146.743,-431.871C142.142,-407.67 133.688,-363.211 128.209,-334.393"/>
<polygon fill="grey" stroke="grey" stroke-width="2" points="131.575,-333.359 126.268,-324.189 124.698,-334.667 131.575,-333.359"/>
</g>
<!-- 6 -->
<g id="node7" class="node"><title>6</title>
<path fill="none" stroke="#59d856" stroke-width="2" d="M138,-252C138,-252 108,-252 108,-252 102,-252 96,-246 96,-240 96,-240 96,-228 96,-228 96,-222 102,-216 108,-216 108,-216 138,-216 138,-216 144,-216 150,-222 150,-228 150,-228 150,-240 150,-240 150,-246 144,-252 138,-252"/>
<text text-anchor="middle" x="123" y="-231.5" font-family="sans" font-size="10.00">pileup</text>
</g>
<!-- 6&#45;&gt;3 -->
<g id="edge5" class="edge"><title>6&#45;&gt;3</title>
<path fill="none" stroke="grey" stroke-width="2" d="M129.674,-215.697C132.715,-207.813 136.383,-198.304 139.761,-189.546"/>
<polygon fill="grey" stroke="grey" stroke-width="2" points="143.069,-190.694 143.403,-180.104 136.538,-188.175 143.069,-190.694"/>
</g>
<!-- 7 -->
<g id="node8" class="node"><title>7</title>
<path fill="none" stroke="#5682d8" stroke-width="2" stroke-dasharray="5,2" d="M66,-324C66,-324 12,-324 12,-324 6,-324 0,-318 0,-312 0,-312 0,-300 0,-300 0,-294 6,-288 12,-288 12,-288 66,-288 66,-288 72,-288 78,-294 78,-300 78,-300 78,-312 78,-312 78,-318 72,-324 66,-324"/>
<text text-anchor="middle" x="39" y="-303.5" font-family="sans" font-size="10.00">pileup_install</text>
</g>
<!-- 7&#45;&gt;6 -->
<g id="edge7" class="edge"><title>7&#45;&gt;6</title>
<path fill="none" stroke="grey" stroke-width="2" d="M59.7641,-287.697C70.2414,-278.965 83.1114,-268.24 94.4997,-258.75"/>
<polygon fill="grey" stroke="grey" stroke-width="2" points="97.0332,-261.195 102.475,-252.104 92.5519,-255.817 97.0332,-261.195"/>
</g>
<!-- 8&#45;&gt;6 -->
<g id="edge8" class="edge"><title>8&#45;&gt;6</title>
<path fill="none" stroke="grey" stroke-width="2" d="M123,-287.697C123,-279.983 123,-270.712 123,-262.112"/>
<polygon fill="grey" stroke="grey" stroke-width="2" points="126.5,-262.104 123,-252.104 119.5,-262.104 126.5,-262.104"/>
</g>
</g>
</svg>
